<svg width="114" height="114" fill="none" xmlns="http://www.w3.org/2000/svg"><circle cx="57" cy="57" r="57" fill="url(#paint0_linear_1_16)"/><path d="M44.933 56V39.429c0-3.297 1.271-6.458 3.534-8.789C50.73 28.31 53.8 27 57 27c3.2 0 6.27 1.31 8.533 3.64 2.263 2.331 3.534 5.492 3.534 8.789V56c0 3.296-1.271 6.458-3.534 8.788-2.263 2.331-5.333 3.64-8.533 3.64-3.2 0-6.27-1.309-8.533-3.64-2.263-2.33-3.534-5.492-3.534-8.788zm30.268.026a1.97 1.97 0 00-1.467.438 2.09 2.09 0 00-.745 1.374c-.442 4.05-2.316 7.79-5.266 10.505-2.95 2.716-6.767 4.217-10.723 4.217-3.956 0-7.774-1.501-10.723-4.217-2.95-2.716-4.824-6.455-5.266-10.505a2.088 2.088 0 00-.745-1.374 1.97 1.97 0 00-1.467-.438c-.264.026-.52.105-.753.234a2 2 0 00-.606.518 2.104 2.104 0 00-.426 1.527c.514 4.7 2.58 9.075 5.853 12.393 3.272 3.318 7.551 5.378 12.122 5.835v6.396c0 .549.212 1.076.589 1.464A1.98 1.98 0 0057 85a1.98 1.98 0 001.422-.607c.377-.388.59-.915.59-1.464v-6.396c4.57-.457 8.85-2.517 12.121-5.835 3.273-3.318 5.339-7.694 5.853-12.393a2.104 2.104 0 00-.426-1.527 2.001 2.001 0 00-.606-.517 1.945 1.945 0 00-.753-.235z" fill="#fff"/><defs><linearGradient id="paint0_linear_1_16" x1="56.496" y1="33.292" x2="56.496" y2="114" gradientUnits="userSpaceOnUse"><stop stop-color="#4C2F5D"/><stop offset=".985" stop-color="#AA3154"/><stop offset="1" stop-color="#742F5C" stop-opacity="0"/></linearGradient></defs></svg>