<svg width="56" height="56" fill="none" xmlns="http://www.w3.org/2000/svg"><path d="M28 56c-3.873 0-7.513-.736-10.92-2.206s-6.37-3.464-8.89-5.984c-2.52-2.52-4.515-5.483-5.984-8.89C.736 35.513 0 31.873 0 28s.735-7.513 2.206-10.92c1.47-3.407 3.464-6.37 5.984-8.89 2.52-2.52 5.483-4.515 8.89-5.986C20.487.734 24.127 0 28 0s7.513.735 10.92 2.204c3.407 1.47 6.37 3.466 8.89 5.986 2.52 2.52 4.514 5.483 5.984 8.89C55.264 20.487 56 24.127 56 28s-.736 7.513-2.206 10.92-3.464 6.37-5.984 8.89c-2.52 2.52-5.483 4.514-8.89 5.984C35.513 55.264 31.873 56 28 56zm-8.4-16.8h16.8c.793 0 1.459-.269 1.996-.806.536-.536.804-1.2.804-1.994V19.6c0-.793-.268-1.459-.804-1.996-.537-.536-1.203-.804-1.996-.804H19.6c-.793 0-1.458.268-1.994.804-.537.537-.806 1.203-.806 1.996v16.8c0 .793.269 1.458.806 1.994.536.537 1.2.806 1.994.806z" fill="url(#paint0_linear_20_21)"/><defs><linearGradient id="paint0_linear_20_21" x1="27.752" y1="16.354" x2="27.752" y2="56" gradientUnits="userSpaceOnUse"><stop stop-color="#4C2F5D"/><stop offset=".985" stop-color="#AA3154"/><stop offset="1" stop-color="#742F5C" stop-opacity="0"/></linearGradient></defs></svg>