<svg width="40" height="58" fill="none" xmlns="http://www.w3.org/2000/svg"><path d="M7.933 29V12.429c0-3.297 1.271-6.458 3.534-8.789C13.73 1.31 16.8 0 20 0c3.2 0 6.27 1.31 8.533 3.64 2.263 2.331 3.534 5.492 3.534 8.789V29c0 3.296-1.271 6.458-3.534 8.788-2.263 2.331-5.333 3.64-8.533 3.64-3.2 0-6.27-1.309-8.533-3.64-2.263-2.33-3.534-5.492-3.534-8.788zm30.268.026a1.97 1.97 0 00-1.467.438c-.415.34-.682.833-.745 1.374-.442 4.05-2.316 7.79-5.266 10.505-2.95 2.716-6.767 4.217-10.723 4.217-3.956 0-7.774-1.501-10.723-4.217-2.95-2.716-4.824-6.455-5.266-10.505a2.088 2.088 0 00-.745-1.374 1.97 1.97 0 00-1.467-.438c-.264.026-.52.105-.753.235-.233.129-.44.305-.606.517a2.105 2.105 0 00-.426 1.527c.514 4.7 2.58 9.075 5.853 12.393 3.272 3.318 7.551 5.378 12.122 5.835v6.396c0 .549.212 1.076.589 1.464A1.98 1.98 0 0020 58a1.98 1.98 0 001.422-.607c.377-.388.59-.915.59-1.464v-6.396c4.57-.457 8.85-2.517 12.121-5.835 3.273-3.318 5.339-7.694 5.853-12.393a2.104 2.104 0 00-.426-1.527 2.001 2.001 0 00-.606-.517 1.945 1.945 0 00-.753-.235z" fill="#3D305E"/></svg>